<svg xmlns="http://www.w3.org/2000/svg" width="144" height="144" fill="none" viewBox="0 0 144 144"><path fill="#E7E4F2" d="M136 8H48C25.909 8 8 25.909 8 48v88h88c22.091 0 40-17.909 40-40V8z"/><path fill="#fff" d="M89 59l-4-4c-31.73 30.382-48.446 45.39-59.275 49.895a19.51 19.51 0 00-5.278-.723c-2.917 0-5.684.641-8.167 1.789a5.837 5.837 0 00-5.446-3.731A5.83 5.83 0 001 108.054l.024 16.502C1.53 134.828 10.033 143 20.447 143h19.447c4.296 0 7.779-3.477 7.779-7.766s-3.483-7.765-7.78-7.765a8.45 8.45 0 00-.39.009 19.49 19.49 0 00.39-3.892c0-1.912-.276-3.759-.791-5.503C48.455 102.578 60.47 88.141 89 59z"/><path stroke="#171321" stroke-linecap="square" stroke-width="2" d="M84 64c-38 39-44.898 54.083-44.898 54.083.515 1.744.792 3.591.792 5.503a19.49 19.49 0 01-.391 3.892c.13-.006.26-.009.39-.009 4.297 0 7.78 3.476 7.78 7.765S44.19 143 39.893 143H20.448c-10.414 0-18.916-8.172-19.423-18.443L1 108.054a5.83 5.83 0 015.834-5.824 5.837 5.837 0 015.446 3.731 19.412 19.412 0 018.167-1.789c1.83 0 3.6.252 5.278.723 0 0 9.775-2.665 40.775-32.395M39.875 123.5a19.28 19.28 0 00-3.09-10.5"/><path fill="#fff" d="M142.139 1.859c6.004 32.417-22.754 46.424-42.308 58.774L83.365 44.167C97.115 22.397 111-4.5 142.14 1.859z"/><path fill="#fff" d="M119.659 47.938L99.72 60.626l-8.02 9.908c7.402 1.494 15.389-.629 21.129-6.369a23.247 23.247 0 006.83-16.228zM96.082 24.36L83.394 44.3l-9.908 8.02c-1.495-7.403.628-15.39 6.368-21.13a23.248 23.248 0 0116.228-6.83z"/><path fill="#FF9D73" stroke="#171321" stroke-linecap="square" stroke-width="2" d="M88.068 37.148l18.781 18.781-6.956 4.174-15.999-15.999 4.174-6.956z"/><path stroke="#171321" stroke-linecap="square" stroke-width="2" d="M85 55L75 65m14-6l-4 4"/><path fill="#AEA5D6" d="M141.389 1.607l.696.696v15.303l-15.999-16h15.303z"/><path stroke="#171321" stroke-linecap="square" stroke-width="2" d="M84.192 27.733a23.38 23.38 0 00-4.36 3.434c-5.678 5.678-7.817 13.554-6.416 20.888l9.95-7.888c8.958-14.186 19.737-34.162 36.258-40.672M141.5 17.021L126.116 1.637c4.73-.878 10.028-.889 16.023.222 6.004 32.417-22.754 46.424-42.308 58.774l-7.89 9.948c7.334 1.4 15.211-.738 20.889-6.416A23.236 23.236 0 00119.623 49"/><circle cx="121.217" cy="23.17" r="7.87" stroke="#171321" stroke-linecap="square" stroke-width="2" transform="rotate(45 121.217 23.17)"/></svg>